HIERARCHY
ROOT Hips
{
	OFFSET	0.00	0.00	0.00
	CHANNELS 6 Xposition Yposition Zposition Zrotation Xrotation Yrotation
	JOINT LeftUpLeg
	{
		OFFSET	 0.126116	-0.065224	 0.014019
		CHANNELS 3 Zrotation Xrotation Yrotation
		JOINT LeftLeg
		{
			OFFSET	 0.000000	 0.569914	 0.000000
			CHANNELS 3 Zrotation Xrotation Yrotation
			JOINT LeftFoot
			{
				OFFSET	 0.000000	 0.544423	 0.000000
				CHANNELS 3 Zrotation Xrotation Yrotation
				JOINT LeftToeBase
				{
					OFFSET	 0.000000	 0.207117	 0.000000
					CHANNELS 3 Zrotation Xrotation Yrotation
					End Site
					{
						OFFSET	 0.000000	 0.207117	 0.000000
					}
				}
			}
		}
	}
	JOINT RightUpLeg
	{
		OFFSET	-0.124023	-0.065224	 0.008373
		CHANNELS 3 Zrotation Xrotation Yrotation
		JOINT RightLeg
		{
			OFFSET	 0.000000	 0.570047	 0.000000
			CHANNELS 3 Zrotation Xrotation Yrotation
			JOINT RightFoot
			{
				OFFSET	 0.000000	 0.544354	 0.000000
				CHANNELS 3 Zrotation Xrotation Yrotation
				JOINT RightToeBase
				{
					OFFSET	 0.000000	 0.207540	 0.000000
					CHANNELS 3 Zrotation Xrotation Yrotation
					End Site
					{
						OFFSET	 0.000000	 0.207540	 0.000000
					}
				}
			}
		}
	}
	JOINT Spine
	{
		OFFSET	 0.000184	 0.117403	 0.007763
		CHANNELS 3 Zrotation Xrotation Yrotation
		JOINT Spine1
		{
			OFFSET	 0.000000	 0.137269	 0.000000
			CHANNELS 3 Zrotation Xrotation Yrotation
			JOINT Spine2
			{
				OFFSET	 0.000000	 0.156879	 0.000000
				CHANNELS 3 Zrotation Xrotation Yrotation
				JOINT LeftShoulder
				{
					OFFSET	 0.080501	 0.160143	 0.002496
					CHANNELS 3 Zrotation Xrotation Yrotation
					JOINT LeftArm
					{
						OFFSET	 0.000000	 0.164363	 0.000000
						CHANNELS 3 Zrotation Xrotation Yrotation
						JOINT LeftForeArm
						{
							OFFSET	 0.000000	 0.364576	 0.000000
							CHANNELS 3 Zrotation Xrotation Yrotation
							JOINT LeftHand
							{
								OFFSET	 0.000000	 0.360812	 0.000000
								CHANNELS 3 Zrotation Xrotation Yrotation
								JOINT LeftHandIndex1
								{
									OFFSET	 0.000000	 0.086006	 0.000000
									CHANNELS 3 Zrotation Xrotation Yrotation
									JOINT LeftHandIndex2
									{
										OFFSET	 0.000000	 0.047237	 0.000000
										CHANNELS 3 Zrotation Xrotation Yrotation
										JOINT LeftHandIndex3
										{
											OFFSET	-0.004284	 0.038165	 0.000551
											CHANNELS 3 Zrotation Xrotation Yrotation
											End Site
											{
												OFFSET	-0.004284	 0.038165	 0.000551
											}
										}
									}
								}
							}
						}
					}
				}
				JOINT Neck
				{
					OFFSET	 0.000000	 0.176489	 0.000000
					CHANNELS 3 Zrotation Xrotation Yrotation
					JOINT Head
					{
						OFFSET	 0.000000	 0.077941	 0.001747
						CHANNELS 3 Zrotation Xrotation Yrotation
						End Site
						{
							OFFSET	 0.000000	 0.077941	 0.001747
						}
					}
				}
				JOINT RightShoulder
				{
					OFFSET	-0.080363	 0.159706	-0.000306
					CHANNELS 3 Zrotation Xrotation Yrotation
					JOINT RightArm
					{
						OFFSET	 0.000000	 0.164196	 0.000000
						CHANNELS 3 Zrotation Xrotation Yrotation
						JOINT RightForeArm
						{
							OFFSET	 0.000000	 0.365611	 0.000000
							CHANNELS 3 Zrotation Xrotation Yrotation
							JOINT RightHand
							{
								OFFSET	 0.000000	 0.360648	 0.000000
								CHANNELS 3 Zrotation Xrotation Yrotation
								JOINT RightHandIndex1
								{
									OFFSET	 0.000000	 0.069977	 0.000000
									CHANNELS 3 Zrotation Xrotation Yrotation
									JOINT RightHandIndex2
									{
										OFFSET	 0.000000	 0.052305	 0.000000
										CHANNELS 3 Zrotation Xrotation Yrotation
										JOINT RightHandIndex3
										{
											OFFSET	 0.009002	 0.042196	 0.000782
											CHANNELS 3 Zrotation Xrotation Yrotation
											End Site
											{
												OFFSET	 0.009002	 0.042196	 0.000782
											}
										}
									}
								}
							}
						}
					}
				}
			}
		}
	}
}
MOTION
Frames:    4
Frame Time: 0.03333334
 0.539785	 1.030131	-0.143851	 33.751790	-29.080550	-100.723900	-71.905470	 85.870610	-124.273900	 51.843400	-83.312440	 56.806320	 46.925070	 33.132490	-52.974200	 1.808172	 49.760460	-7.910453	 62.683120	 76.842990	 96.196300	-15.039560	-71.626940	-15.425650	-59.377520	 54.020020	 74.994680	-1.641865	 33.245580	 2.843943	 3.879644	 11.697850	-5.620575	-16.658280	 4.190467	 2.572214	 9.571686	 22.134180	 19.505660	-108.202900	 6.601182	 92.143330	 35.883080	 52.961270	-19.567200	 4.443037	-0.231386	 0.283277	-9.121869	-14.801800	 6.836915	-4.603614	 4.023242	-8.065420	-6.757150	 6.586815	 1.718282	 4.963066	-4.014628	-0.346955	 7.543627	-3.978616	 3.277472	 6.461429	 3.229961	-40.408360	 84.351840	 10.427460	-88.915480	-32.642450	 38.467750	 56.849410	-65.276540	-4.804694	 9.074329	 9.519101	 36.099790	 11.809400	-3.765160	 15.302330	-1.510914	 14.297390	 21.369130	-6.326431	-8.239867	-2.131385	 0.447455
 0.566166	 1.046499	-0.156579	 29.274670	-24.610900	-96.248910	-163.054500	 76.059640	-42.353330	 90.629100	-84.731920	 96.235000	 55.439190	 32.979690	-61.092930	 1.110777	 47.484880	-6.477268	 90.589580	 72.093900	 73.282300	-13.938520	-70.313480	-14.441770	-60.213260	 53.695270	 74.888010	-1.643141	 33.266370	 2.845211	 3.926432	 11.725710	-5.346557	-16.566670	-0.331793	 1.408250	 12.337190	 22.999860	 18.802580	-106.370100	 5.716974	 91.746590	 33.075180	 57.908930	-17.771280	 4.470896	-0.233934	 0.401574	-12.178610	-8.034847	 9.438910	-3.925925	 3.200455	-8.171399	-6.818459	 6.986821	 1.796327	 4.963066	-4.014628	-0.346955	 9.053672	-1.404180	 3.024257	 4.459773	 4.518140	-40.171350	 85.942410	 9.051377	-89.949800	-37.206240	 42.450690	 61.434320	-69.376250	-4.949857	 8.045669	 10.941600	 39.253240	 5.538806	-3.530890	 15.722230	-1.736452	 14.285050	 21.491000	-6.355555	-8.239867	-2.131385	 0.447455
 0.590938	 1.072536	-0.170765	 24.890100	-19.881110	-90.799000	-172.048600	 55.120580	-39.102630	 74.263050	-84.528370	 80.853090	 58.139650	 35.316520	-65.699410	 0.473695	 44.987980	-5.023515	 109.084900	 64.377070	 60.470030	-11.692730	-66.962220	-12.410990	-60.414540	 52.661640	 74.120270	-1.644535	 33.289070	 2.846596	 3.906996	 10.973430	-4.746624	-17.697150	-5.277675	 0.098433	 15.852170	 23.930590	 18.046690	-104.378800	 4.737642	 91.346670	 28.545770	 62.630410	-14.491840	 4.499489	-0.236838	 0.530849	-15.947300	-1.399013	 12.516270	-3.188324	 2.300816	-8.275891	-6.886078	 7.423413	 1.882101	 4.963066	-4.014628	-0.346955	 10.715980	 1.398900	 2.670287	 2.256765	 5.917876	-39.928040	 87.643970	 7.517392	-91.030630	-42.780020	 42.819060	 67.657830	-70.062900	-4.971646	 7.263481	 11.156520	 43.187010	 1.316730	-3.272614	 16.179620	-1.985253	 14.271650	 21.624060	-6.387346	-8.239867	-2.131385	 0.447455
 0.607290	 1.096717	-0.182626	 20.765010	-15.710650	-85.109660	-171.249000	 35.616240	-40.760750	 33.239050	-80.451900	 41.026270	 50.485930	 35.845150	-59.680520	-0.042265	 42.528550	-3.691854	 119.649400	 55.767700	 55.459690	-9.892504	-63.359290	-10.836450	-60.480770	 51.757170	 73.470280	-1.645904	 33.311340	 2.847957	 3.857888	 9.707861	-4.707322	-18.665970	-5.858334	-0.649326	 19.195730	 22.825100	 17.332270	-102.433900	 3.763761	 90.988100	 24.617790	 66.299120	-11.767100	 4.512435	-0.239060	 0.657582	-18.900800	 6.040452	 14.478900	-2.466209	 1.416435	-8.367141	-6.953176	 7.851952	 1.966903	 4.963066	-4.014628	-0.346955	 12.366910	 4.136830	 2.243311	 0.077888	 7.290078	-39.705790	 89.279720	 5.982283	-92.042860	-47.102850	 38.647090	 73.963830	-66.570160	-4.853146	 6.869594	 7.889573	 48.541900	-1.233106	-3.016439	 16.627610	-2.232177	 14.258550	 21.754700	-6.418554	-8.239867	-2.131385	 0.447455
